<?xml version="1.0" standalone="no"?>
<!DOCTYPE svg PUBLIC "-//W3C//DTD SVG 20010904//EN"
 "http://www.w3.org/TR/2001/REC-SVG-20010904/DTD/svg10.dtd">
<svg version="1.0" xmlns="http://www.w3.org/2000/svg"
 width="432.000000pt" height="432.000000pt" viewBox="0 0 432.000000 432.000000"
 preserveAspectRatio="xMidYMid meet">

<g transform="translate(0.000000,432.000000) scale(0.100000,-0.100000)"
fill="#000000" stroke="none">
<path d="M2040 3530 c-76 -16 -151 -61 -192 -115 -73 -95 -75 -112 -82 -640
-3 -258 -7 -630 -8 -825 -2 -351 -2 -356 21 -415 13 -33 39 -83 58 -112 40
-61 143 -160 196 -188 20 -11 37 -22 37 -26 0 -14 -84 -31 -181 -36 -306 -16
-521 137 -594 422 -8 32 -15 72 -15 87 0 18 -5 28 -15 28 -21 0 -19 -50 6
-140 61 -222 210 -368 425 -416 104 -23 284 -15 369 15 46 17 65 19 85 11 50
-20 166 -40 240 -40 245 0 441 144 551 408 30 74 32 85 40 267 4 105 8 457 9
783 0 489 -2 592 -13 592 -12 0 -15 -130 -21 -737 -3 -406 -11 -764 -15 -796
-6 -35 -29 -98 -57 -155 -38 -77 -64 -113 -124 -173 -138 -140 -294 -185 -504
-144 -98 18 -105 23 -65 47 50 30 140 127 178 191 18 32 45 88 58 125 l25 67
10 655 c5 360 8 736 6 835 -3 174 -4 182 -31 237 -37 76 -118 149 -188 171
-70 22 -153 28 -209 17z m236 -63 c58 -29 93 -67 132 -141 l27 -51 -3 -605
c-2 -333 -7 -713 -11 -845 l-6 -240 -45 -90 c-34 -71 -60 -106 -119 -165 -42
-41 -89 -82 -104 -90 -27 -13 -33 -12 -85 15 -87 46 -181 145 -228 239 l-39
80 -3 335 c-1 185 2 566 6 846 10 572 9 565 84 650 68 77 117 95 248 92 80 -3
103 -7 146 -30z"/>
<path d="M1205 1875 c-53 -52 -16 -145 57 -145 37 1 59 14 76 47 19 35 14 63
-17 94 -38 37 -82 39 -116 4z m95 -25 c11 -11 20 -26 20 -33 0 -24 -31 -57
-55 -57 -49 0 -72 55 -38 92 21 24 48 23 73 -2z"/>
<path d="M1521 1015 c0 -11 6 -29 14 -39 19 -25 19 -17 0 25 -10 24 -14 28
-14 14z"/>
<path d="M1587 1017 c-2 -7 -1 -30 3 -52 l8 -40 1 53 c1 52 -2 64 -12 39z"/>
<path d="M2062 1018 c-7 -7 -12 -16 -12 -22 0 -5 6 -2 13 8 7 10 22 16 33 14
27 -5 27 -71 0 -76 -11 -2 -26 4 -34 14 -8 11 -12 13 -10 5 13 -46 70 -36 76
13 6 46 -36 74 -66 44z"/>
<path d="M2331 978 c1 -29 4 -43 6 -30 6 28 17 28 29 1 8 -17 10 -12 9 27 0
43 -3 49 -22 52 -22 3 -23 0 -22 -50z m37 25 c-5 -25 -28 -28 -28 -4 0 12 6
21 16 21 9 0 14 -7 12 -17z"/>
<path d="M2606 1022 c-3 -6 -13 -30 -21 -54 -12 -34 -12 -39 -1 -25 7 9 19 17
26 17 7 0 19 -8 26 -17 12 -16 12 -16 7 5 -3 13 -13 22 -24 22 -11 0 -19 7
-19 15 0 8 5 15 10 15 6 0 10 -5 10 -12 0 -6 2 -9 5 -6 3 3 2 16 -3 28 -5 15
-11 19 -16 12z"/>
<path d="M2843 980 c0 -30 2 -45 4 -32 3 15 11 22 28 22 17 0 25 -7 28 -22 2
-13 4 2 4 32 0 30 -2 43 -4 28 -3 -22 -10 -28 -28 -28 -18 0 -25 6 -28 28 -2
15 -4 2 -4 -28z"/>
<path d="M1824 976 c-3 -8 -4 -23 -2 -33 3 -11 6 -6 9 15 6 34 2 42 -7 18z"/>
<path d="M1562 960 c-7 -11 -8 -20 -3 -20 9 0 24 30 18 36 -1 2 -8 -6 -15 -16z"/>
</g>
</svg>
